<svg xmlns="http://www.w3.org/2000/svg" width="2027.581" height="721.109" viewBox="0 0 2027.581 721.109">
  <g id="Dekorasi_Hero" data-name="Dekorasi Hero" transform="translate(82.064 -163)">
    <path id="Icon_metro-airplane" data-name="Icon metro-airplane" d="M31.743,26.237,24.8,19.292,41.467,6.79,36.6,1.928,15.769,10.263,9.209,3.7C7.318,1.812,4.678,1.359,3.341,2.7S2.457,6.674,4.348,8.565l6.559,6.559L2.571,35.962l4.862,4.862,12.5-16.67L26.881,31.1v9.723h4.862l2.431-7.293L41.466,31.1V26.237H31.743Z" transform="translate(1116.114 250.707) rotate(93)" fill="#6d90ec" opacity="0.52"/>
    <path id="Icon_metro-airplane-2" data-name="Icon metro-airplane" d="M31.743,26.237,24.8,19.292,41.467,6.79,36.6,1.928,15.769,10.263,9.209,3.7C7.318,1.812,4.678,1.359,3.341,2.7S2.457,6.674,4.348,8.565l6.559,6.559L2.571,35.962l4.862,4.862,12.5-16.67L26.881,31.1v9.723h4.862l2.431-7.293L41.466,31.1V26.237H31.743Z" transform="translate(1700.938 524.707) rotate(93)" fill="#f2f2f2" opacity="0.52"/>
    <circle id="Ellipse_5" data-name="Ellipse 5" cx="247" cy="247" r="247" transform="translate(1093 325)" fill="#f170ff" opacity="0.4"/>
    <circle id="Ellipse_10" data-name="Ellipse 10" cx="16.5" cy="16.5" r="16.5" transform="translate(1174 796)" fill="#f170ff" opacity="0.48"/>
    <circle id="Ellipse_13" data-name="Ellipse 13" cx="16.5" cy="16.5" r="16.5" transform="translate(1469 787)" fill="#3660cf" opacity="0.48"/>
    <circle id="Ellipse_12" data-name="Ellipse 12" cx="16.5" cy="16.5" r="16.5" transform="translate(1008 513)" fill="#3660cf" opacity="0.48"/>
    <circle id="Ellipse_7" data-name="Ellipse 7" cx="32.5" cy="32.5" r="32.5" transform="translate(84 178)" fill="#3660cf" opacity="0.4"/>
    <path id="Path_37" data-name="Path 37" d="M1112.54-24.036s-20.6,96.145-94.429,78.977S933.984,72.109,909.948,90.995" transform="translate(832 270)" fill="none" stroke="#f2f2f2" stroke-width="2" stroke-dasharray="19" opacity="0.4"/>
    <path id="Path_38" data-name="Path 38" stroke="#f2f2f2" d="M909.948-24.036s24.782,88.681,94.429,78.977S1088.5,72.109,1112.54,90.995" fill="none" transform="translate(-991.048 764)" stroke-linejoin="round" stroke-width="2" stroke-dasharray="19" opacity="0.4"/>
    <path id="Icon_awesome-paper-plane" data-name="Icon awesome-paper-plane" d="M49.659,53.089,1.3,25.192a2.506,2.506,0,0,1,.23-4.507l11.09-4.653L42.6,42.448a.625.625,0,0,0,.9-.866L18.361,10.962v-8.4A2.5,2.5,0,0,1,22.794.915L29.419,8.98l13-5.446a2.511,2.511,0,0,1,3.443,1.9L53.373,50.5A2.5,2.5,0,0,1,49.659,53.089Z" transform="translate(1746.326 342.699) rotate(90)" fill="#f170ff" opacity="0.4"/>
    <path id="Icon_awesome-paper-plane-2" data-name="Icon awesome-paper-plane" d="M49.659.337,1.3,28.234a2.506,2.506,0,0,0,.23,4.507l11.09,4.653L42.6,10.978a.625.625,0,0,1,.9.866L18.361,42.464v8.4a2.5,2.5,0,0,0,4.434,1.648l6.625-8.065,13,5.446a2.511,2.511,0,0,0,3.443-1.9L53.373,2.924A2.5,2.5,0,0,0,49.659.337Z" transform="translate(166.54 830.699) rotate(90)" fill="#f170ff" opacity="0.4"/>
    <path id="Icon_awesome-paper-plane-3" data-name="Icon awesome-paper-plane" d="M49.659.337,1.3,28.234a2.506,2.506,0,0,0,.23,4.507l11.09,4.653L42.6,10.978a.625.625,0,0,1,.9.866L18.361,42.464v8.4a2.5,2.5,0,0,0,4.434,1.648l6.625-8.065,13,5.446a2.511,2.511,0,0,0,3.443-1.9L53.373,2.924A2.5,2.5,0,0,0,49.659.337Z" transform="matrix(0.966, 0.259, -0.259, 0.966, 1021.945, 592.689)" fill="#f170ff" opacity="0.4"/>
    <path id="Icon_material-beach-access" data-name="Icon material-beach-access" d="M32.267,45.281l-5.045-5.045L4.5,62.967,9.536,68ZM17.121,25.066,7.031,14.976a35.7,35.7,0,0,1,50.45-.071c-13.865-4.586-29.317-.882-40.36,10.161ZM57.587,15.011a35.7,35.7,0,0,1-.071,50.45l-10.09-10.09C58.469,44.328,62.174,28.876,57.587,15.011Zm-.071-.071.035.035c1.341,10.619-4.128,24.272-15.17,35.35L22.166,30.111C33.209,19.068,46.9,13.6,57.517,14.94Z" transform="translate(687.498 454.498)" fill="#f2f2f2"/>
    <circle id="Ellipse_9" data-name="Ellipse 9" cx="23" cy="23" r="23" transform="translate(673 254)" fill="#f170ff" opacity="0.48"/>
  </g>
</svg>
