<svg xmlns="http://www.w3.org/2000/svg" width="889.059" height="616.28" viewBox="0 0 889.059 616.28">
  <g id="Gambar_traveler" data-name="Gambar traveler" transform="translate(0 2.203)">
    <path id="Path_133" data-name="Path 133" d="M229.667,717.376a152.566,152.566,0,0,0,7.128,42.175c.1.317.2.629.307.946h26.6c-.028-.284-.057-.6-.085-.946-1.773-20.388,8.358-142.994,20.583-164.214C283.127,597.058,227.6,652.6,229.667,717.376Z" transform="translate(-141.85 -148.346)" fill="#e6e6e6"/>
    <path id="Path_134" data-name="Path 134" d="M230.946,762.384c.222.317.454.634.691.946h19.954c-.151-.27-.327-.587-.53-.946-3.3-5.949-13.053-23.736-22.109-42.175-9.729-19.815-18.662-40.382-17.909-47.826C210.81,674.061,204.075,725.241,230.946,762.384Z" transform="translate(-141.134 -151.179)" fill="#e6e6e6"/>
    <path id="Path_133-2" data-name="Path 133" d="M567.518,741.691a77.519,77.519,0,0,0,3.621,21.427c.049.161.1.32.156.481h13.513c-.014-.144-.029-.305-.043-.481-.9-10.358,4.246-72.65,10.457-83.431C594.679,680.563,566.47,708.778,567.518,741.691Z" transform="translate(-154.275 -151.448)" fill="#e6e6e6"/>
    <path id="Path_134-2" data-name="Path 134" d="M568.168,764.557c.113.161.231.322.351.481h10.138c-.077-.137-.166-.3-.269-.481-1.675-3.022-6.632-12.059-11.233-21.427-4.943-10.067-9.481-20.517-9.1-24.3C557.938,719.684,554.516,745.687,568.168,764.557Z" transform="translate(-153.911 -152.887)" fill="#e6e6e6"/>
    <path id="Path_1" data-name="Path 1" d="M344.651,182.157l-34.4,24.466,21.4,2.292,29.812-25.227Z" transform="translate(-11.409 -6.779)" fill="#3f3d56"/>
    <path id="Path_2" data-name="Path 2" d="M206.253,612.8h20.688l9.842-79.8H206.249Z" transform="translate(-7.584 -19.681)" fill="#9f616a"/>
    <path id="Path_3" data-name="Path 3" d="M339.274,740.031l40.743,0h0a25.965,25.965,0,0,1,25.964,25.962v.845l-66.708,0Z" transform="translate(-145.883 -153.667)" fill="#2f2e41"/>
    <path id="Path_4" data-name="Path 4" d="M331.147,451.143s-8.966,10.135,5.88,49.643l-2.615,216.632,48.113-.939L393.1,610.808,412.357,456.6Z" transform="translate(-145.485 -143.044)" fill="#2f2e41"/>
    <path id="Path_5" data-name="Path 5" d="M280.877,408.894a10.927,10.927,0,0,1-10.894-10.636l-2.258-85.09,38.634-73.295a10.992,10.992,0,0,1,8.965-5.809l29.442-1.89-2.542,171.517-60.39,5.161Q281.354,408.894,280.877,408.894Z" transform="translate(-143.252 -134.992)" fill="#6c63ff"/>
    <path id="Path_6" data-name="Path 6" d="M428.508,472.327l-.527-.08c-61.55-9.387-108-18.386-108.459-18.476l-.577-.112,16.135-39.244c-.128-4.1-3.62-119.255,3.066-152.34,6.472-32.028,36.982-37.277,40.458-37.771l3.491-11.567,44.1,22.95,7.692,26.473,1.562,72.557Z" transform="translate(-145.135 -134.277)" fill="#3f3d56"/>
    <path id="Path_7" data-name="Path 7" d="M367.8,362.94c-28.415,0-51.533-30.9-51.533-68.871S339.385,225.2,367.8,225.2s51.533,30.9,51.533,68.871S396.216,362.94,367.8,362.94Zm0-131c-24.7,0-44.79,27.871-44.79,62.128S343.1,356.2,367.8,356.2s44.79-27.871,44.79-62.128S392.5,231.941,367.8,231.941Z" transform="translate(-145.037 -134.735)" fill="#6c63ff"/>
    <path id="Path_8" data-name="Path 8" d="M456,327.2a14.4,14.4,0,0,0-10.576,4.627l-74.129,0L344.14,337.6l4.458,34.386,96.594-20.774A14.442,14.442,0,1,0,456,327.2Z" transform="translate(-146.062 -138.486)" fill="#9f616a"/>
    <circle id="Ellipse_2" data-name="Ellipse 2" cx="35.727" cy="35.727" r="35.727" transform="translate(228.706 48.323) rotate(-45)" fill="#9f616a"/>
    <path id="Path_9" data-name="Path 9" d="M393.165,151.04l-1.732-3.486,8.715-4.33s9.614-15.643,27.011-11.247S452.384,139,452.384,139l8.693,4.374-4.363,4.341,7.827,2.631-5.229,2.6,6.084,3.5-3.275,17.927s-5.44-13.6-15.9-8.4-29.588-2.686-29.588-2.686l-16.619,32.163s-3.428-11.275-9.541-8.268C390.475,187.181,374.858,162.309,393.165,151.04Z" transform="translate(-147.537 -131.279)" fill="#2f2e41"/>
    <path id="Path_10" data-name="Path 10" d="M712.5,378.575l-1.527-28.64-15.412-12.522-8.928,26.521-49.936,66.6a12.515,12.515,0,1,0,14.5,12.352c0-.169-.019-.332-.025-.5Z" transform="translate(-156.432 -138.862)" fill="#ffb7b7"/>
    <path id="Path_11" data-name="Path 11" d="M607.438,621.948H595.629L590.011,576.4H607.44Z" transform="translate(-21.696 -21.276)" fill="#ffb7b7"/>
    <path id="Path_12" data-name="Path 12" d="M748.276,766.184H710.2V765.7a14.821,14.821,0,0,1,14.82-14.82h23.258Z" transform="translate(-159.523 -154.066)" fill="#2f2e41"/>
    <path id="Path_13" data-name="Path 13" d="M664.438,621.948H652.629L647.011,576.4H664.44Z" transform="translate(-23.792 -21.276)" fill="#ffb7b7"/>
    <path id="Path_14" data-name="Path 14" d="M805.276,766.184H767.2V765.7a14.821,14.821,0,0,1,14.819-14.82h23.258Z" transform="translate(-161.619 -154.066)" fill="#2f2e41"/>
    <path id="Path_15" data-name="Path 15" d="M787.724,252.969c5-20.643,9.235-43.927-.194-62.939-6.542-13.192-30.744-17.634-44.618-12.882s-23.9,17.647-28.316,31.705-3.9,29.208-1.976,43.822C738.136,252.185,763.651,251.694,787.724,252.969Z" transform="translate(-159.559 -132.9)" fill="#2f2e41"/>
    <circle id="Ellipse_3" data-name="Ellipse 3" cx="29.754" cy="29.754" r="29.754" transform="translate(544.723 78.472) rotate(-28.663)" fill="#ffb8b8"/>
    <path id="Path_16" data-name="Path 16" d="M780.852,217.221a37.372,37.372,0,1,0-74.7.985C731.62,218.261,757.087,218.315,780.852,217.221Z" transform="translate(-159.372 -133.042)" fill="#2f2e41"/>
    <path id="Path_17" data-name="Path 17" d="M696.225,410.851s-4.842,70.327-2.214,91.779,31.237,209,31.237,209l21.581-.039,6.407-221.017,25.52,223.165,22.318-2.321,12.66-218.3s-1.985-81.727-18.121-89.921Z" transform="translate(-158.899 -141.281)" fill="#2f2e41"/>
    <path id="Path_18" data-name="Path 18" d="M729.73,475.716a99.751,99.751,0,0,1-45.57-11.035l-.308-.158,11.928-79.15-.774-94.332a19.5,19.5,0,0,1,19.679-19.659l64.007.587a20.656,20.656,0,0,1,20.4,22.286l-5.99,75.623,19.808,61.38-3.443,4.577A99.658,99.658,0,0,1,729.73,475.716Z" transform="translate(-158.554 -136.434)" fill="#3f3d56"/>
    <path id="Path_19" data-name="Path 19" d="M688.755,352.825l6.707-68.44,2.156-3.067a19.5,19.5,0,0,1,27.236-4.692l1.848,1.311-1.824,69.358Z" transform="translate(-158.734 -136.494)" fill="#3f3d56"/>
    <path id="Path_20" data-name="Path 20" d="M973.7,702.981c17.339-4.79,24.739,21.541,7.443,26.484C963.809,734.255,956.409,707.924,973.7,702.981Z" transform="translate(-168.85 -152.283)" fill="#3f3d56"/>
    <path id="Path_21" data-name="Path 21" d="M873.9,738.165c17.339-4.79,24.739,21.541,7.443,26.484C864,769.438,856.6,743.107,873.9,738.165Z" transform="translate(-165.18 -153.577)" fill="#3f3d56"/>
    <path id="Path_22" data-name="Path 22" d="M832.64,449.469l.268-.075L877.57,570.646l5.888-1.655L838.475,446.869h0a8.259,8.259,0,0,0-6.908-7.723c-22.335-3.532-31.389,16.3-31.389,16.3l.089.132,45.661,123.966,5.888-1.655L807.5,457.566C820.992,444.221,832.64,449.469,832.64,449.469Z" transform="translate(-162.831 -142.587)" fill="#3f3d56"/>
    <path id="Path_23" data-name="Path 23" d="M884.725,738.193a29.919,29.919,0,0,1-28.369-21.223c-8.524-27.9-28.636-94.748-31.3-112.889-3.47-23.621,16.081-30.338,16.517-30.482.526-.177,8.387-2.377,19.266-5.422,18.493-5.175,46.44-13,47.467-13.459a33.291,33.291,0,0,1,26.563,2.052,34.768,34.768,0,0,1,17.267,21.3L980.9,680.417A27.668,27.668,0,0,1,966.239,712.9c-22.2,10.664-54.751,24.89-81.077,25.291Z" transform="translate(-163.731 -146.785)" fill="#6c63ff"/>
    <path id="Path_24" data-name="Path 24" d="M827.442,441.212l-14.461-84.473-1.614-28.509-23.379,7.658L807.706,446.5a12.516,12.516,0,1,0,19.736-5.288Z" transform="translate(-162.383 -138.524)" fill="#ffb7b7"/>
    <path id="Path_25" data-name="Path 25" d="M816.321,349.4l-36.49-1.985-8.573-68.85.834-.724a20.657,20.657,0,0,1,29.2,2.136l1.688,1.963.025.124Z" transform="translate(-161.768 -136.485)" fill="#3f3d56"/>
    <path id="Path_26" data-name="Path 26" d="M829.017,565.373l-37.3-126.233-87.7,24.785-.524-1.853,89.533-25.3.27.913,37.566,127.146Z" transform="translate(-25.869 -16.142)" fill="#3f3d56"/>
    <path id="Path_27" data-name="Path 27" d="M145.617,268.7l-3.971-86.6,40.679-79.518,1.715.878-40.445,79.063,3.947,86.085Z" transform="translate(-5.209 -3.854)" fill="#3f3d56"/>
    <path id="Path_28" data-name="Path 28" d="M1026.6,768.728H139.463a.963.963,0,1,1,0-1.926H1026.6a.963.963,0,1,1,0,1.926Z" transform="translate(-138.5 -154.651)" fill="#ccc"/>
    <path id="Path_29" data-name="Path 29" d="M348.859,374.86l-8.477-25.217-2.051-84.059,3.612-11.926a33.321,33.321,0,1,1,62.932,21.773l-19.361,49.612.984,1.91,41.945-.34,14.9,26.819Z" transform="translate(-145.848 -134.912)" fill="#3f3d56"/>
    <path id="Path_30" data-name="Path 30" d="M622.025,562.017l-.03.006-46.49,9.307-39.992,16.105a4.244,4.244,0,0,1-5.523-2.352q-.073-.182-.13-.371l-29.215-97.828a4.225,4.225,0,0,1,2.481-5.152l40.724-16.4.03-.006,46.49-9.307,39.992-16.105a4.244,4.244,0,0,1,5.523,2.352q.074.182.13.371l29.216,97.827a4.226,4.226,0,0,1-2.481,5.152Z" transform="translate(-151.81 -142.62)" fill="#e5e5e5"/>
    <path id="Path_31" data-name="Path 31" d="M572.629,497.581c-10.661-3.762-21.68-7.058-32.748-9.8l-.556-.137,5.62,18.817,28.631-8.55Zm-27.245,8.072-5.105-17.095c10.535,2.622,21.019,5.751,31.186,9.306Zm83.109,17.365q-7.444-4.209-15.1-8.061-2.112-1.064-4.236-2.1-12.967-6.309-26.331-11.5l-.1-.041L546.626,512.1l9.856,33,72.678-21.7Zm-71.571,21.27-9.483-31.753,35.253-10.528q12.887,5.011,25.479,11.1,2.186,1.057,4.357,2.146,7.584,3.8,14.974,7.955Zm71.571-21.27q-7.444-4.209-15.1-8.061-2.112-1.064-4.236-2.1-12.967-6.309-26.331-11.5l-.1-.04L546.626,512.1l9.856,33,72.678-21.7Zm-71.571,21.27-9.483-31.753,35.253-10.528q12.887,5.011,25.479,11.1,2.186,1.057,4.357,2.146,7.584,3.8,14.974,7.955Zm15.707-46.707c-10.661-3.762-21.68-7.058-32.748-9.8l-.555-.137,5.62,18.817,28.631-8.551Zm-27.245,8.072-5.105-17.095c10.535,2.622,21.018,5.751,31.186,9.306Zm27.245-8.072c-10.661-3.762-21.68-7.058-32.748-9.8l-.555-.137,5.62,18.817,28.631-8.551Zm-27.245,8.072-5.105-17.095c10.535,2.622,21.018,5.751,31.186,9.306Zm83.109,17.365q-7.444-4.209-15.1-8.061-2.112-1.064-4.236-2.1-12.967-6.309-26.331-11.5l-.1-.04L546.626,512.1l9.856,33,72.678-21.7Zm-71.571,21.27-9.483-31.753,35.253-10.528q12.887,5.011,25.479,11.1,2.186,1.057,4.357,2.146,7.584,3.8,14.974,7.955ZM527.2,559.98l.187.626,24.711-7.38L554.8,562.3l-24.711,7.38.187.626,25.336-7.567-3.083-10.324Zm35.732,6.707,1.893,6.34.608-.245-1.689-5.656L660.1,538.351l-.187-.626Zm92.4-44.291-.187-.626-96.979,28.962,3.083,10.324,96.979-28.962-.187-.626-96.352,28.775-2.709-9.072Zm-72.023-28.068a318.59,318.59,0,0,0-45.386-13.662l-1.892-6.335-.608.245,1.907,6.384.64.386a317.96,317.96,0,0,1,45.21,13.631l.1.04L641.923,477.5l-.187-.626ZM538.5,507.709l-24.711,7.38.187.626,25.337-7.567-9.368-31.368-.608.245Zm105.1-24.574-51.554,15.4.84.352q11.861,4.991,23.659,11.034,1.677.859,3.351,1.74,8.329,4.374,16.529,9.235l.607.151,16.424-4.905-.187-.626-16.385,4.893q-8.113-4.814-16.377-9.165-1.653-.871-3.31-1.722-11.549-5.932-23.223-10.884l49.811-14.876Zm-111.644,92.8.187.626,24.711-7.38,1.88,6.294.608-.245-2.049-6.862Zm-16.3-54.59.187.626,24.711-7.38,9.483,31.753-24.711,7.38.187.626,25.337-7.567-9.857-33Zm56.97-23.764c-10.661-3.762-21.68-7.058-32.748-9.8l-.556-.137,5.62,18.817,28.631-8.55Zm-27.245,8.072-5.105-17.095c10.535,2.622,21.019,5.751,31.186,9.306Zm83.109,17.365q-7.444-4.209-15.1-8.061-2.111-1.064-4.236-2.1-12.967-6.309-26.331-11.5l-.1-.04L546.626,512.1l9.856,33,72.678-21.7Zm-71.571,21.27-9.483-31.753,35.253-10.528q12.887,5.011,25.479,11.1,2.186,1.057,4.357,2.146,7.584,3.8,14.974,7.955Zm15.707-46.707c-10.661-3.762-21.68-7.058-32.748-9.8l-.555-.137,5.62,18.817,28.631-8.551Zm-27.245,8.072-5.105-17.095c10.535,2.622,21.018,5.751,31.186,9.306Zm83.109,17.365q-7.444-4.209-15.1-8.061-2.112-1.064-4.236-2.1-12.967-6.309-26.331-11.5l-.1-.04L546.626,512.1l9.856,33,72.678-21.7Zm-71.571,21.27-9.483-31.753,35.253-10.528q12.887,5.011,25.479,11.1,2.186,1.057,4.357,2.146,7.584,3.8,14.974,7.955Z" transform="translate(-152.3 -143.897)" fill="#fff"/>
    <path id="Path_32" data-name="Path 32" d="M582.374,501.121c2.366,7.923-6.709,29.857-6.709,29.857s-19.617-13.365-21.983-21.288a14.972,14.972,0,1,1,28.691-8.569Z" transform="translate(-153.744 -144.488)" fill="#6c63ff"/>
    <path id="Path_33" data-name="Path 33" d="M574.7,503.109a6.844,6.844,0,1,1-8.517-4.6,6.844,6.844,0,0,1,8.517,4.6Z" transform="translate(-154.047 -144.775)" fill="#fff"/>
    <circle id="Ellipse_4" data-name="Ellipse 4" cx="4.036" cy="4.036" r="4.036" transform="translate(419.822 388.94)" fill="#6c63ff"/>
    <path id="Path_34" data-name="Path 34" d="M623.183,483.434l-28.048,8.376a.594.594,0,0,1-.107.023l6.4-26.94a.969.969,0,0,1,1.617-.483l13.508,12.761.647.61Z" transform="translate(-155.288 -143.522)" fill="#fff"/>
    <path id="Path_35" data-name="Path 35" d="M485.392,352.733l-9.576,2.86,2.662-8.232.191-.593.1-.3.646.611Z" transform="translate(-17.497 -12.822)" opacity="0.2"/>
    <path id="Path_36" data-name="Path 36" d="M639.546,478.827l-24.26,7.244,2.662-8.232.191-.593,3.468-10.728a1.294,1.294,0,0,1,1.807-.66,1.169,1.169,0,0,1,.121.084Z" transform="translate(-156.032 -143.579)" fill="#fff"/>
  </g>
</svg>
