<svg xmlns="http://www.w3.org/2000/svg" width="63.489" height="63.499" viewBox="0 0 63.489 63.499">
  <path id="Icon_material-beach-access" data-name="Icon material-beach-access" d="M32.267,45.281l-5.045-5.045L4.5,62.967,9.536,68ZM17.121,25.066,7.031,14.976a35.7,35.7,0,0,1,50.45-.071c-13.865-4.586-29.317-.882-40.36,10.161ZM57.587,15.011a35.7,35.7,0,0,1-.071,50.45l-10.09-10.09C58.469,44.328,62.174,28.876,57.587,15.011Zm-.071-.071.035.035c1.341,10.619-4.128,24.272-15.17,35.35L22.166,30.111C33.209,19.068,46.9,13.6,57.517,14.94Z" transform="translate(-4.502 -4.502)" fill="#f2f2f2"/>
</svg>
